<svg width="24" height="19" viewBox="0 0 24 19" fill="none" xmlns="http://www.w3.org/2000/svg">
<g clip-path="url(#clip0_235_762)">
<path d="M2.15467 18.9987C1.54044 18.9987 1.028 18.7934 0.617333 18.3827C0.206667 17.972 0.000888889 17.4591 0 16.844V2.4867C0 1.87248 0.205778 1.36003 0.617333 0.949364C1.02889 0.538698 1.54089 0.33292 2.15333 0.332031H21.8467C22.46 0.332031 22.972 0.537809 23.3827 0.949364C23.7933 1.36092 23.9991 1.87336 24 2.4867V16.8454C24 17.4587 23.7942 17.9711 23.3827 18.3827C22.9711 18.7943 22.4591 18.9996 21.8467 18.9987H2.15467ZM12 9.82003L22.6667 2.84537L22.256 1.66536L12 8.33203L1.744 1.66536L1.33333 2.84537L12 9.82003Z" fill="#FDB346"/>
</g>
<defs>
<clipPath id="clip0_235_762">
<rect width="24" height="18.6667" fill="white" transform="translate(0 0.332031)"/>
</clipPath>
</defs>
</svg>
