<svg width="24" height="24" viewBox="0 0 24 24" fill="none" xmlns="http://www.w3.org/2000/svg">
<g clip-path="url(#clip0_235_758)">
<path fill-rule="evenodd" clip-rule="evenodd" d="M2.82821 0.765255C3.09067 0.503188 3.40583 0.299893 3.7528 0.16884C4.09977 0.037788 4.47064 -0.0180285 4.84082 0.00508982C5.21099 0.0282081 5.57203 0.129733 5.9 0.302938C6.22797 0.476142 6.51539 0.71707 6.74321 1.00976L9.43571 4.46876C9.92921 5.10326 10.1032 5.92976 9.90821 6.70976L9.08771 9.99476C9.04558 10.1649 9.04802 10.3431 9.09479 10.512C9.14156 10.6809 9.23107 10.835 9.35471 10.9593L13.0402 14.6448C13.1646 14.7686 13.3189 14.8583 13.4882 14.9051C13.6574 14.9519 13.8358 14.9542 14.0062 14.9118L17.2897 14.0913C17.6747 13.9956 18.0763 13.9884 18.4645 14.0702C18.8526 14.1521 19.2171 14.3208 19.5307 14.5638L22.9897 17.2548C24.2332 18.2223 24.3472 20.0598 23.2342 21.1713L21.6832 22.7223C20.5732 23.8323 18.9142 24.3198 17.3677 23.7753C13.4087 22.3841 9.81452 20.1179 6.85271 17.1453C3.88026 14.1839 1.61403 10.5902 0.222706 6.63176C-0.320294 5.08676 0.167206 3.42626 1.27721 2.31626L2.82821 0.765255Z" fill="#FDB346"/>
</g>
<defs>
<clipPath id="clip0_235_758">
<rect width="24" height="24" fill="white"/>
</clipPath>
</defs>
</svg>
