<svg width="24" height="26" viewBox="0 0 24 26" fill="none" xmlns="http://www.w3.org/2000/svg">
<mask id="mask0_235_766" style="mask-type:luminance" maskUnits="userSpaceOnUse" x="3" y="3" width="18" height="22">
<path d="M12 24C12 24 19.5 18 19.5 11.5C19.5 7.358 16.142 4 12 4C7.858 4 4.5 7.358 4.5 11.5C4.5 18 12 24 12 24Z" fill="white" stroke="white" stroke-width="2" stroke-linejoin="round"/>
<path d="M12 14.5C12.394 14.5 12.7841 14.4224 13.1481 14.2716C13.512 14.1209 13.8427 13.8999 14.1213 13.6213C14.3999 13.3427 14.6209 13.012 14.7716 12.6481C14.9224 12.2841 15 11.894 15 11.5C15 11.106 14.9224 10.7159 14.7716 10.3519C14.6209 9.98797 14.3999 9.65726 14.1213 9.37868C13.8427 9.1001 13.512 8.87913 13.1481 8.72836C12.7841 8.5776 12.394 8.5 12 8.5C11.2044 8.5 10.4413 8.81607 9.87868 9.37868C9.31607 9.94129 9 10.7044 9 11.5C9 12.2956 9.31607 13.0587 9.87868 13.6213C10.4413 14.1839 11.2044 14.5 12 14.5Z" fill="black" stroke="black" stroke-width="2" stroke-linejoin="round"/>
</mask>
<g mask="url(#mask0_235_766)">
<path d="M0 2H24V26H0V2Z" fill="#FDB346"/>
</g>
</svg>
