<svg width="9" height="6" viewBox="0 0 9 6" fill="none" xmlns="http://www.w3.org/2000/svg">
<path d="M7.25646 0.191292C7.3947 0.0672398 7.57867 -0.00134136 7.76954 1.98831e-05C7.96041 0.00138113 8.14325 0.0725785 8.27949 0.198588C8.41573 0.324598 8.4947 0.495564 8.49974 0.675411C8.50479 0.855259 8.43551 1.02992 8.30653 1.16254L4.39085 5.77827C4.32352 5.84663 4.24226 5.90148 4.15192 5.93956C4.06158 5.97764 3.96403 5.99815 3.86509 5.99988C3.76614 6.00161 3.66785 5.98451 3.57608 5.94961C3.48431 5.91471 3.40094 5.86273 3.33097 5.79677L0.734262 3.34923C0.661948 3.28572 0.603946 3.20913 0.563718 3.12403C0.52349 3.03893 0.501858 2.94707 0.500115 2.85392C0.498371 2.76077 0.516551 2.66824 0.553569 2.58186C0.590587 2.49547 0.645686 2.417 0.715578 2.35112C0.78547 2.28525 0.868724 2.23331 0.960372 2.19842C1.05202 2.16353 1.15019 2.14639 1.24901 2.14804C1.34784 2.14968 1.4453 2.17007 1.53559 2.20799C1.62588 2.24591 1.70713 2.30057 1.77452 2.36873L3.82951 4.30475L7.23782 0.211642C7.24395 0.204521 7.2505 0.197726 7.25744 0.191292H7.25646Z" fill="#1A1A1A" fill-opacity="0.3"/>
</svg>
