<svg width="30" height="30" viewBox="0 0 30 30" fill="none" xmlns="http://www.w3.org/2000/svg">
<g clip-path="url(#clip0_235_1271)">
<rect x="2.39844" y="8.39844" width="25.2" height="15" fill="#FDB346"/>
<path d="M2.09672 2.18461C0 4.28147 0 7.65661 0 14.4061V15.5993C0 22.3488 0 25.7239 2.09672 27.8206C4.19358 29.9174 7.56872 29.9174 14.3182 29.9174H15.5114C22.2609 29.9174 25.636 29.9174 27.7328 27.8206C29.8295 25.7239 29.8295 22.3488 29.8295 15.5993V14.4061C29.8295 7.65654 29.8295 4.28141 27.7328 2.18461C25.636 0.0878908 22.2609 0.0878906 15.5114 0.0878906H14.3182C7.56865 0.0878906 4.19351 0.0878908 2.09672 2.18461ZM5.03374 9.16113H8.4393C8.55116 14.8536 11.0618 17.2648 13.0504 17.762V9.16107H16.2571V14.0705C18.2209 13.8592 20.2841 11.622 20.9801 9.16107H24.1868C23.9244 10.4374 23.4016 11.6458 22.6509 12.7108C21.9003 13.7758 20.938 14.6745 19.8242 15.3507C21.0678 15.9681 22.1662 16.8424 23.0468 17.9158C23.9274 18.9892 24.5701 20.2373 24.9325 21.5776H21.4027C21.0775 20.4134 20.4156 19.3712 19.5002 18.5818C18.5847 17.7924 17.4565 17.291 16.2571 17.1405V21.5776H15.8718C9.07318 21.5776 5.19533 16.9167 5.03374 9.16107" fill="#1A1A1A"/>
</g>
<defs>
<clipPath id="clip0_235_1271">
<rect width="30" height="30" fill="white"/>
</clipPath>
</defs>
</svg>
