<svg width="30" height="30" viewBox="0 0 30 30" fill="none" xmlns="http://www.w3.org/2000/svg">
<g clip-path="url(#clip0_235_1281)">
<path d="M30 6.825C29.9821 6.17791 29.9321 5.53211 29.85 4.89C29.7378 4.32773 29.5512 3.78293 29.295 3.27C29.0259 2.71424 28.666 2.20727 28.23 1.77C27.7893 1.33811 27.283 0.97867 26.73 0.705C26.2163 0.453997 25.6715 0.272406 25.11 0.165C24.4742 0.0689032 23.8329 0.0137897 23.19 0H6.825C6.17791 0.0178512 5.53211 0.067913 4.89 0.15C4.32773 0.262176 3.78293 0.44882 3.27 0.705C2.71424 0.974085 2.20727 1.33403 1.77 1.77C1.33811 2.2107 0.97867 2.71696 0.705 3.27C0.453997 3.78368 0.272406 4.32845 0.165 4.89C0.0689032 5.5258 0.0137897 6.16712 0 6.81V23.175C0.0178512 23.8221 0.067913 24.4679 0.15 25.11C0.262176 25.6723 0.44882 26.2171 0.705 26.73C0.974085 27.2858 1.33403 27.7927 1.77 28.23C2.2107 28.6619 2.71696 29.0213 3.27 29.295C3.78368 29.546 4.32845 29.7276 4.89 29.835C5.5258 29.9311 6.16712 29.9862 6.81 30H23.175C23.8221 29.9821 24.4679 29.9321 25.11 29.85C25.6723 29.7378 26.2171 29.5512 26.73 29.295C27.2858 29.0259 27.7927 28.666 28.23 28.23C28.6619 27.7893 29.0213 27.283 29.295 26.73C29.546 26.2163 29.7276 25.6715 29.835 25.11C29.9311 24.4742 29.9862 23.8329 30 23.19V6.825ZM15.345 25.5C13.5434 25.4924 11.7732 25.0279 10.2 24.15L4.5 25.65L6 20.07C5.032 18.445 4.51426 16.5914 4.5 14.7C4.50597 12.5744 5.1408 10.4981 6.32454 8.73256C7.50828 6.96705 9.18798 5.5913 11.1521 4.77857C13.1162 3.96585 15.2769 3.75251 17.362 4.16541C19.4472 4.57831 21.3635 5.59899 22.8696 7.09891C24.3758 8.59882 25.4045 10.5109 25.826 12.5943C26.2476 14.6777 26.0432 16.8392 25.2387 18.8067C24.4341 20.7742 23.0654 22.4596 21.3048 23.6507C19.5442 24.8417 17.4706 25.4852 15.345 25.5ZM15.345 5.805C13.7547 5.8232 12.1976 6.26248 10.8323 7.07811C9.46702 7.89374 8.34222 9.05659 7.57244 10.4483C6.80267 11.84 6.41542 13.4108 6.45013 15.0008C6.48483 16.5908 6.94024 18.1432 7.77 19.5L7.98 19.845L7.08 23.13L10.5 22.2L10.83 22.395C12.1944 23.1986 13.7466 23.6281 15.33 23.64C17.7169 23.64 20.0061 22.6918 21.694 21.004C23.3818 19.3161 24.33 17.0269 24.33 14.64C24.33 12.2531 23.3818 9.96387 21.694 8.27604C20.0061 6.58821 17.7169 5.64 15.33 5.64L15.345 5.805ZM20.595 18.585C20.3985 18.9127 20.1355 19.1955 19.8228 19.4151C19.5102 19.6348 19.1549 19.7863 18.78 19.86C18.2199 19.9642 17.6427 19.9282 17.1 19.755C16.5891 19.5949 16.0883 19.4046 15.6 19.185C13.7456 18.2545 12.1642 16.8591 11.01 15.135C10.3843 14.3353 10.004 13.3714 9.915 12.36C9.90607 11.9397 9.98558 11.5222 10.1484 11.1346C10.3112 10.747 10.5536 10.3979 10.86 10.11C10.9502 10.0077 11.061 9.92544 11.185 9.8686C11.309 9.81175 11.4436 9.78157 11.58 9.78H12C12.165 9.78 12.39 9.78 12.6 10.245C12.81 10.71 13.365 12.105 13.44 12.24C13.4769 12.312 13.4961 12.3917 13.4961 12.4725C13.4961 12.5533 13.4769 12.633 13.44 12.705C13.3746 12.8684 13.2834 13.0204 13.17 13.155C13.035 13.32 12.885 13.515 12.765 13.635C12.645 13.755 12.495 13.905 12.645 14.175C13.0538 14.8633 13.5589 15.4896 14.145 16.035C14.7839 16.5995 15.5144 17.051 16.305 17.37C16.575 17.505 16.74 17.49 16.89 17.37C17.04 17.25 17.565 16.59 17.745 16.32C17.925 16.05 18.105 16.095 18.345 16.185C18.585 16.275 19.92 16.92 20.19 17.055C20.46 17.19 20.625 17.25 20.7 17.37C20.7651 17.7626 20.7289 18.1653 20.595 18.54V18.585Z" fill="#1A1A1A"/>
</g>
<defs>
<clipPath id="clip0_235_1281">
<rect width="30" height="30" fill="white"/>
</clipPath>
</defs>
</svg>
