<svg width="30" height="30" viewBox="0 0 30 30" fill="none" xmlns="http://www.w3.org/2000/svg">
<g clip-path="url(#clip0_235_1276)">
<path d="M15 0C11.0227 0 7.20469 1.58133 4.39453 4.39336C1.5815 7.20652 0.000804958 11.0217 0 15C0 18.9766 1.58203 22.7946 4.39453 25.6066C7.20469 28.4187 11.0227 30 15 30C18.9773 30 22.7953 28.4187 25.6055 25.6066C28.418 22.7946 30 18.9766 30 15C30 11.0234 28.418 7.20539 25.6055 4.39336C22.7953 1.58133 18.9773 0 15 0Z" fill="#1A1A1A"/>
<path d="M6.78761 14.8391C11.161 12.9341 14.0767 11.6782 15.5345 11.0713C19.7017 9.33857 20.5665 9.03763 21.1314 9.02743C21.2556 9.02544 21.5321 9.05614 21.7126 9.20204C21.8626 9.32509 21.9048 9.4915 21.9259 9.60833C21.9446 9.72505 21.9704 9.99107 21.9493 10.1987C21.7243 12.5706 20.747 18.3264 20.2501 20.983C20.0415 22.1071 19.6267 22.484 19.2259 22.5208C18.354 22.6009 17.6931 21.9451 16.8493 21.3922C15.5298 20.5267 14.7845 19.9881 13.5025 19.1436C12.0212 18.1677 12.9821 17.6312 13.8259 16.7547C14.0462 16.5252 17.8853 13.0342 17.9579 12.7175C17.9673 12.6779 17.9767 12.5303 17.8876 12.4525C17.8009 12.3744 17.672 12.4011 17.5782 12.4222C17.4446 12.4522 15.3376 13.8463 11.2501 16.6042C10.6525 17.0153 10.111 17.2157 9.62355 17.2051C9.08917 17.1936 8.05792 16.9023 7.29151 16.6534C6.35401 16.348 5.60636 16.1865 5.67198 15.6679C5.70479 15.3979 6.07745 15.1215 6.78761 14.8391Z" fill="#FDB346"/>
</g>
<defs>
<clipPath id="clip0_235_1276">
<rect width="30" height="30" fill="white"/>
</clipPath>
</defs>
</svg>
