<svg width="30" height="30" viewBox="0 0 30 30" fill="none" xmlns="http://www.w3.org/2000/svg">
<g clip-path="url(#clip0_235_1285)">
<path d="M16.5425 0C18.2299 0.00449989 19.0864 0.0134997 19.8259 0.0344992L20.1169 0.0449989C20.4529 0.0569986 20.7843 0.0719982 21.1848 0.0899977C22.7808 0.164996 23.8698 0.41699 24.8253 0.787481C25.8152 1.16847 26.6492 1.68446 27.4832 2.51694C28.2462 3.26652 28.8364 4.17361 29.2126 5.17487C29.5831 6.13035 29.8351 7.21932 29.9101 8.81679C29.9281 9.21578 29.9431 9.54727 29.9551 9.88476L29.9641 10.1758C29.9866 10.9137 29.9956 11.7702 29.9986 13.4577L30.0001 14.5766V16.5416C30.0038 17.6357 29.9923 18.7298 29.9656 19.8235L29.9566 20.1145C29.9446 20.452 29.9296 20.7835 29.9116 21.1825C29.8366 22.7799 29.5816 23.8674 29.2126 24.8244C28.8364 25.8257 28.2462 26.7328 27.4832 27.4823C26.7336 28.2454 25.8265 28.8356 24.8253 29.2118C23.8698 29.5823 22.7808 29.8343 21.1848 29.9093L20.1169 29.9543L19.8259 29.9633C19.0864 29.9843 18.2299 29.9948 16.5425 29.9978L15.4235 29.9993H13.46C12.3654 30.0031 11.2709 29.9916 10.1766 29.9648L9.88561 29.9558C9.52954 29.9423 9.17354 29.9268 8.81764 29.9093C7.22168 29.8343 6.1327 29.5823 5.17573 29.2118C4.175 28.8354 3.26844 28.2452 2.51929 27.4823C1.75573 26.7329 1.16499 25.8258 0.788334 24.8244C0.417843 23.8689 0.165849 22.7799 0.0908509 21.1825L0.045852 20.1145L0.0383524 19.8235C0.0107021 18.7298 -0.0017989 17.6357 0.000853175 16.5416V13.4577C-0.00329857 12.3636 0.00770234 11.2695 0.0338525 10.1758L0.0443522 9.88476C0.0563519 9.54727 0.0713515 9.21578 0.0893511 8.81679C0.164349 7.21932 0.416343 6.13185 0.786834 5.17487C1.16437 4.1732 1.75615 3.26608 2.52079 2.51694C3.2695 1.75428 4.17553 1.16408 5.17573 0.787481C6.1327 0.41699 7.22018 0.164996 8.81764 0.0899977C9.21663 0.0719982 9.54962 0.0569986 9.88561 0.0449989L10.1766 0.035999C11.2704 0.00934883 12.3644 -0.00215199 13.4585 0.00149985L16.5425 0ZM15.0005 7.49982C13.0114 7.49982 11.1038 8.28998 9.69732 9.69646C8.29083 11.103 7.50067 13.0106 7.50067 14.9996C7.50067 16.9887 8.29083 18.8963 9.69732 20.3028C11.1038 21.7093 13.0114 22.4995 15.0005 22.4995C16.9896 22.4995 18.8972 21.7093 20.3037 20.3028C21.7102 18.8963 22.5003 16.9887 22.5003 14.9996C22.5003 13.0106 21.7102 11.103 20.3037 9.69646C18.8972 8.28998 16.9896 7.49982 15.0005 7.49982ZM15.0005 10.4997C15.5914 10.4996 16.1766 10.6159 16.7226 10.842C17.2686 11.068 17.7647 11.3994 18.1826 11.8172C18.6005 12.235 18.9321 12.731 19.1583 13.2769C19.3845 13.8228 19.501 14.408 19.5011 14.9989C19.5012 15.5898 19.3849 16.175 19.1589 16.721C18.9328 17.267 18.6015 17.7631 18.1837 18.181C17.7659 18.5989 17.2699 18.9305 16.724 19.1567C16.1781 19.3829 15.5929 19.4994 15.002 19.4995C13.8085 19.4995 12.664 19.0254 11.8201 18.1815C10.9762 17.3376 10.5021 16.1931 10.5021 14.9996C10.5021 13.8062 10.9762 12.6616 11.8201 11.8177C12.664 10.9738 13.8085 10.4997 15.002 10.4997M22.8768 5.24987C22.3795 5.24987 21.9026 5.44741 21.551 5.79903C21.1994 6.15066 21.0018 6.62756 21.0018 7.12483C21.0018 7.6221 21.1994 8.099 21.551 8.45062C21.9026 8.80224 22.3795 8.99978 22.8768 8.99978C23.3741 8.99978 23.851 8.80224 24.2026 8.45062C24.5542 8.099 24.7518 7.6221 24.7518 7.12483C24.7518 6.62756 24.5542 6.15066 24.2026 5.79903C23.851 5.44741 23.3741 5.24987 22.8768 5.24987Z" fill="#1A1A1A"/>
</g>
<defs>
<clipPath id="clip0_235_1285">
<rect width="30.0008" height="30" fill="white"/>
</clipPath>
</defs>
</svg>
