<svg width="34" height="35" viewBox="0 0 34 35" fill="none" xmlns="http://www.w3.org/2000/svg">
<path fill-rule="evenodd" clip-rule="evenodd" d="M14.3438 1C6.42192 1 0 7.51589 0 15.5536C0 20.9623 2.9079 25.6819 7.22396 28.1907C7.21791 29.7276 7.17519 30.8164 6.87368 31.9831C6.46918 33.5484 6.26694 34.3309 6.6542 34.741C7.04146 35.1511 7.66032 35.0147 8.89806 34.742C12.5279 33.9421 14.8572 31.8962 16.1614 30.1072H19.6562C27.5781 30.1072 34 23.5914 34 15.5536C34 7.51589 27.5781 1 19.6562 1H14.3438Z" fill="white"/>
<path d="M12 17C13.6569 17 15 15.6569 15 14C15 12.3431 13.6569 11 12 11C10.3431 11 9 12.3431 9 14C9 15.6569 10.3431 17 12 17Z" fill="#00CC68"/>
<path d="M22 17C23.6569 17 25 15.6569 25 14C25 12.3431 23.6569 11 22 11C20.3431 11 19 12.3431 19 14C19 15.6569 20.3431 17 22 17Z" fill="#00CC68"/>
</svg>
